# xmcd
#
# Track frame offsets:
# 150
# 15288
# 31527
# 41003
# 53833
# 75052
# 92200
# 104209
# 110556
# 120692
# 129684
# 135702
# 147261
# 164403
# 178877
# 195151
# 211202
# 222767
#
# Disc length: 3199 seconds
#
# Revision: 0
# Processed by: cddbd v1.5.2PL0 Copyright (c) Steve Scherf et al.
# Submitted via: Axialis_AX_CDPlayer 2.6
#
DISCID=f40c7d12
DTITLE=Johnny Cash - The Great Lost Performance
DYEAR=1900
DGENRE=
TTITLE0=Ring Of Fire
TTITLE1=Life's Railway To Heaven
TTITLE2=A Wonderful Time Up There
TTITLE3=Folsom Prison Blues
TTITLE4=Sunday Morning Coming Down
TTITLE5=What Is Man
TTITLE6=Forty Shades Of Green
TTITLE7=Come Along And Ride This Train
TTITLE8=Five Feet High And Rising
TTITLE9=Pickin' Time
TTITLE10=A Beautiful Life
TTITLE11=Hey Porter
TTITLE12=Ragged Old Flag
TTITLE13=Tennessee Flat Top Box
TTITLE14=Ghost Riders In The Sky
TTITLE15=Jackson
TTITLE16=The Wreck Of Old '97
TTITLE17=I Walk The Line
EXTD=www.johnnycash.com - Recorded July 28, 1990 at The Paramount Theatre, 
EXTD=\nAsbury Park, NJ
EXTT0=
EXTT1=
EXTT2=
EXTT3=
EXTT4=
EXTT5=With Lucy Clark
EXTT6=
EXTT7=
EXTT8=
EXTT9=
EXTT10=
EXTT11=
EXTT12=
EXTT13=
EXTT14=
EXTT15=With June Carter Cash
EXTT16=With June Carter Cash
EXTT17=
PLAYORDER=
